<?xml version="1.0" standalone="no"?>
<!DOCTYPE svg PUBLIC "-//W3C//DTD SVG 20010904//EN"
 "http://www.w3.org/TR/2001/REC-SVG-20010904/DTD/svg10.dtd">
<svg version="1.0" xmlns="http://www.w3.org/2000/svg"
 width="730.000000pt" height="730.000000pt" viewBox="0 0 730.000000 730.000000"
 preserveAspectRatio="xMidYMid meet">
<metadata>
Created by potrace 1.11, written by Peter Selinger 2001-2013
</metadata>
<g transform="translate(0.000000,730.000000) scale(0.100000,-0.100000)"
fill="#000000" stroke="none">
<path d="M3110 6910 l0 -270 -585 0 -585 0 0 -270 0 -270 -290 0 -290 0 0
-270 0 -270 -270 0 -270 0 0 -535 0 -535 270 0 270 0 0 275 0 275 285 0 285 0
0 265 0 265 1150 0 1150 0 0 -275 0 -275 -865 0 -865 0 0 -270 0 -270 -275 0
-275 0 0 -810 0 -810 -295 0 -295 0 0 -260 0 -260 1445 0 1445 0 0 270 0 270
1130 0 1130 0 0 260 0 260 -270 0 -270 0 0 545 0 545 -300 0 -300 0 0 265 0
265 -280 0 -280 0 0 280 0 280 585 0 585 0 0 800 0 800 -1435 0 -1435 0 0
-270z"/>
<path d="M4820 1515 l0 -805 845 0 845 0 0 805 0 805 -845 0 -845 0 0 -805z"/>
<path d="M1360 1510 l0 -270 1440 0 1440 0 0 270 0 270 -1440 0 -1440 0 0
-270z"/>
<path d="M820 435 l0 -265 1740 0 1740 0 0 265 0 265 -1740 0 -1740 0 0 -265z"/>
</g>
</svg>
