<?xml version="1.0" standalone="no"?>
<!DOCTYPE svg PUBLIC "-//W3C//DTD SVG 20010904//EN"
 "http://www.w3.org/TR/2001/REC-SVG-20010904/DTD/svg10.dtd">
<svg version="1.0" xmlns="http://www.w3.org/2000/svg"
 width="730.000000pt" height="730.000000pt" viewBox="0 0 730.000000 730.000000"
 preserveAspectRatio="xMidYMid meet">
<metadata>
Created by potrace 1.11, written by Peter Selinger 2001-2013
</metadata>
<g transform="translate(0.000000,730.000000) scale(0.100000,-0.100000)"
fill="#000000" stroke="none">
<path d="M3100 6910 l0 -270 -585 0 -586 0 1 -267 1 -268 -285 -3 -286 -2 0
-270 0 -271 -270 1 -270 1 -3 -535 -2 -536 273 0 272 0 0 270 0 270 285 0 285
0 2 268 3 267 1148 3 1147 2 -2 -272 -3 -273 -860 0 -860 0 -5 -270 -5 -270
-282 -3 -283 -2 0 -810 0 -810 -285 0 -285 0 0 -265 0 -265 1445 0 1445 0 0
270 0 270 1135 0 1135 0 0 268 0 267 -270 -3 -270 -3 0 541 0 540 -302 2 -303
3 -5 270 -5 270 -275 0 -275 0 -3 273 -2 272 585 0 585 0 0 805 0 805 -1440 0
-1440 0 0 -270z"/>
<path d="M5662 2323 l-852 -3 2 -805 3 -806 852 -2 853 -2 0 813 c0 446 -1
811 -2 810 -2 -2 -387 -4 -856 -5z"/>
<path d="M1360 1515 l0 -265 1445 0 1445 0 0 265 0 265 -1445 0 -1445 0 0
-265z"/>
<path d="M817 433 l2 -268 1741 -2 1740 -3 0 270 0 270 -1742 0 -1743 0 2
-267z"/>
</g>
</svg>
